<mxfile host="Electron" modified="2023-12-03T11:39:19.275Z" agent="Mozilla/5.0 (Windows NT 10.0; Win64; x64) AppleWebKit/537.36 (KHTML, like Gecko) draw.io/22.1.2 Chrome/114.0.5735.289 Electron/25.9.4 Safari/537.36" etag="61KtH6Ue5htjkI2JIyA_" version="22.1.2" type="device">
  <diagram id="R2lEEEUBdFMjLlhIrx00" name="Page-1">
    <mxGraphModel dx="978" dy="571" grid="1" gridSize="10" guides="1" tooltips="1" connect="1" arrows="1" fold="1" page="1" pageScale="1" pageWidth="1100" pageHeight="850" math="0" shadow="0" extFonts="Permanent Marker^https://fonts.googleapis.com/css?family=Permanent+Marker">
      <root>
        <mxCell id="0" />
        <mxCell id="1" parent="0" />
        <mxCell id="PbmmIJs7A0wYKSqM8QZ1-18" value="&lt;h1 style=&quot;&quot;&gt;&lt;span style=&quot;background-color: initial;&quot;&gt;&lt;font style=&quot;font-size: 24px;&quot;&gt;Entities with their corresponding attributes:&lt;/font&gt;&lt;/span&gt;&lt;br&gt;&lt;/h1&gt;&lt;h1&gt;&lt;span style=&quot;font-size: 12px; font-weight: 400;&quot;&gt;1.&lt;span style=&quot;&quot;&gt; &lt;/span&gt;Branch: This entity represents the different branches of the driving school. Attributes for this entity: branch_id (primary key), branch_name, and branch_location.&lt;/span&gt;&lt;/h1&gt;&lt;h1&gt;&lt;span style=&quot;font-size: 12px; font-weight: 400;&quot;&gt;2.&lt;span style=&quot;&quot;&gt; &lt;/span&gt;Employee: This entity represents the employees of the driving school.&amp;nbsp;&lt;/span&gt;&lt;/h1&gt;&lt;h1&gt;&lt;span style=&quot;font-size: 12px; font-weight: 400;&quot;&gt;Attributes for this entity: employee_id (primary key), name( composed of first and last names), employee_job_title ,&amp;nbsp; date of birth(with age as a derrivative), phone number ,email(of which there can be multiple) and branch_id (foreign key).&lt;/span&gt;&lt;/h1&gt;&lt;h1&gt;&lt;span style=&quot;font-size: 12px; font-weight: 400;&quot;&gt;3.&lt;span style=&quot;&quot;&gt; &lt;/span&gt;License: This entity represents the types of driving licenses offered by the driving school and held by the respective people.&amp;nbsp;&lt;/span&gt;&lt;/h1&gt;&lt;h1&gt;&lt;span style=&quot;font-size: 12px; font-weight: 400;&quot;&gt;Attributes for this entity: license_id (primary key) and catagory.&lt;/span&gt;&lt;/h1&gt;&lt;h1&gt;&lt;span style=&quot;font-size: 12px; font-weight: 400;&quot;&gt;4.&lt;span style=&quot;&quot;&gt; &lt;/span&gt;Vehicle: This entity represents the vehicles available for lessons.&amp;nbsp;&lt;/span&gt;&lt;/h1&gt;&lt;h1&gt;&lt;span style=&quot;font-size: 12px; font-weight: 400;&quot;&gt;Attributes for this entity: plate number (primary key), type, model, make and license_id (foreign key).&lt;/span&gt;&lt;/h1&gt;&lt;div&gt;&lt;span style=&quot;font-size: 12px; font-weight: 400;&quot;&gt;5. Lesson: This entity represents the lesson that will take place.&lt;/span&gt;&lt;/div&gt;&lt;div&gt;&lt;span style=&quot;font-size: 12px; font-weight: 400;&quot;&gt;Attributes for this entity: duration, time, date, topic, type, max participants, and lesson_id (primary key).&amp;nbsp;&lt;/span&gt;&lt;/div&gt;&lt;h1&gt;&lt;span style=&quot;font-size: 12px; font-weight: 400;&quot;&gt;6.&lt;span style=&quot;&quot;&gt; &lt;/span&gt;Student: This entity represents the students of the driving school.&amp;nbsp;&lt;/span&gt;&lt;/h1&gt;&lt;h1&gt;&lt;span style=&quot;font-size: 12px; font-weight: 400;&quot;&gt;Attributes for this entity: student_id (primary key), name (composed of first and last names), email (of which they can have multiple), phone number, date of birth (with age as a derrivative) and license_id (foreign key).&lt;/span&gt;&lt;/h1&gt;" style="text;html=1;strokeColor=none;fillColor=none;spacing=5;spacingTop=-20;whiteSpace=wrap;overflow=hidden;rounded=0;" parent="1" vertex="1">
          <mxGeometry x="32.5" y="110" width="497.5" height="740" as="geometry" />
        </mxCell>
        <mxCell id="PbmmIJs7A0wYKSqM8QZ1-19" value="&lt;h1 style=&quot;text-align: left;&quot;&gt;The relationships between these entities are as follows:&lt;/h1&gt;&lt;h1 style=&quot;text-align: left;&quot;&gt;&lt;span style=&quot;font-size: 12px; font-weight: 400;&quot;&gt;A branch has many employees.&lt;/span&gt;&lt;/h1&gt;&lt;h1 style=&quot;text-align: left;&quot;&gt;&lt;span style=&quot;font-size: 12px; font-weight: 400;&quot;&gt;An employee can teach many lessons but can only belong to one branch.&lt;/span&gt;&lt;/h1&gt;&lt;h1 style=&quot;text-align: left;&quot;&gt;&lt;span style=&quot;font-size: 12px; font-weight: 400;&quot;&gt;A lesson can be taught by many employees but can only belong to one branch.&lt;/span&gt;&lt;/h1&gt;&lt;h1 style=&quot;text-align: left;&quot;&gt;&lt;span style=&quot;font-size: 12px; font-weight: 400;&quot;&gt;A lesson can be booked by many students but can only have one vehicle.&lt;/span&gt;&lt;/h1&gt;&lt;h1 style=&quot;text-align: left;&quot;&gt;&lt;span style=&quot;font-size: 12px; font-weight: 400;&quot;&gt;A student can book many lessons but can only have one license.&lt;/span&gt;&lt;/h1&gt;&lt;h1 style=&quot;text-align: left;&quot;&gt;&lt;span style=&quot;font-size: 12px;&quot;&gt;&lt;i&gt;This data model can be used to answer various questions such as which teacher teaches which student, when in which vehicle, who of the instructors is available for which type of vehicle, and who books which lesson on which vehicle. At least that was my idea feel free to add more to it (yes it is I Danilo breaking the fourth wall).&lt;/i&gt;&lt;/span&gt;&lt;/h1&gt;" style="text;html=1;strokeColor=none;fillColor=none;align=center;verticalAlign=middle;whiteSpace=wrap;rounded=0;" parent="1" vertex="1">
          <mxGeometry x="567.5" y="80" width="580" height="450" as="geometry" />
        </mxCell>
        <mxCell id="PbmmIJs7A0wYKSqM8QZ1-20" value="&lt;h1 style=&quot;text-align: left;&quot;&gt;&lt;font style=&quot;font-size: 48px;&quot;&gt;Syllabus:&lt;/font&gt;&lt;/h1&gt;" style="text;html=1;strokeColor=none;fillColor=none;align=center;verticalAlign=middle;whiteSpace=wrap;rounded=0;" parent="1" vertex="1">
          <mxGeometry x="32.5" y="10" width="230" height="70" as="geometry" />
        </mxCell>
        <mxCell id="Eazdyq1h2dUuFc-zY29B-1" value="&lt;u&gt;branch_id&lt;/u&gt;" style="ellipse;whiteSpace=wrap;html=1;" parent="1" vertex="1">
          <mxGeometry x="1507" y="365" width="100" height="50" as="geometry" />
        </mxCell>
        <mxCell id="Eazdyq1h2dUuFc-zY29B-2" style="rounded=0;orthogonalLoop=1;jettySize=auto;html=1;exitX=0.25;exitY=1;exitDx=0;exitDy=0;entryX=0.5;entryY=0;entryDx=0;entryDy=0;endArrow=none;endFill=0;" parent="1" source="Eazdyq1h2dUuFc-zY29B-3" target="Eazdyq1h2dUuFc-zY29B-1" edge="1">
          <mxGeometry relative="1" as="geometry" />
        </mxCell>
        <mxCell id="Eazdyq1h2dUuFc-zY29B-3" value="Branch" style="rounded=0;whiteSpace=wrap;html=1;" parent="1" vertex="1">
          <mxGeometry x="1587" y="245" width="230" height="50" as="geometry" />
        </mxCell>
        <mxCell id="Eazdyq1h2dUuFc-zY29B-4" style="rounded=0;orthogonalLoop=1;jettySize=auto;html=1;exitX=1;exitY=0.5;exitDx=0;exitDy=0;endArrow=none;endFill=0;" parent="1" source="Eazdyq1h2dUuFc-zY29B-5" edge="1">
          <mxGeometry relative="1" as="geometry">
            <mxPoint x="1587.25" y="270" as="targetPoint" />
          </mxGeometry>
        </mxCell>
        <mxCell id="Eazdyq1h2dUuFc-zY29B-5" value="name" style="ellipse;whiteSpace=wrap;html=1;" parent="1" vertex="1">
          <mxGeometry x="1427.25" y="245" width="100" height="50" as="geometry" />
        </mxCell>
        <mxCell id="Eazdyq1h2dUuFc-zY29B-6" style="rounded=0;orthogonalLoop=1;jettySize=auto;html=1;exitX=1;exitY=1;exitDx=0;exitDy=0;entryX=0.25;entryY=0;entryDx=0;entryDy=0;endArrow=none;endFill=0;" parent="1" source="Eazdyq1h2dUuFc-zY29B-7" target="Eazdyq1h2dUuFc-zY29B-3" edge="1">
          <mxGeometry relative="1" as="geometry" />
        </mxCell>
        <mxCell id="Eazdyq1h2dUuFc-zY29B-7" value="location" style="ellipse;whiteSpace=wrap;html=1;" parent="1" vertex="1">
          <mxGeometry x="1497.25" y="130" width="100" height="50" as="geometry" />
        </mxCell>
        <mxCell id="Eazdyq1h2dUuFc-zY29B-8" style="edgeStyle=orthogonalEdgeStyle;rounded=0;orthogonalLoop=1;jettySize=auto;html=1;entryX=1;entryY=0.5;entryDx=0;entryDy=0;endArrow=none;endFill=0;exitX=0;exitY=0.5;exitDx=0;exitDy=0;" parent="1" source="Eazdyq1h2dUuFc-zY29B-10" target="Eazdyq1h2dUuFc-zY29B-3" edge="1">
          <mxGeometry relative="1" as="geometry">
            <mxPoint x="1877.25" y="280" as="sourcePoint" />
          </mxGeometry>
        </mxCell>
        <mxCell id="Eazdyq1h2dUuFc-zY29B-9" value="(1,N)" style="text;html=1;strokeColor=none;fillColor=none;align=center;verticalAlign=middle;whiteSpace=wrap;rounded=0;" parent="1" vertex="1">
          <mxGeometry x="1807" y="245" width="60" height="30" as="geometry" />
        </mxCell>
        <mxCell id="Eazdyq1h2dUuFc-zY29B-10" value="works" style="rhombus;whiteSpace=wrap;html=1;" parent="1" vertex="1">
          <mxGeometry x="1892.25" y="230" width="135" height="80" as="geometry" />
        </mxCell>
        <mxCell id="Eazdyq1h2dUuFc-zY29B-13" value="&lt;u&gt;employee_id&lt;/u&gt;" style="ellipse;whiteSpace=wrap;html=1;" parent="1" vertex="1">
          <mxGeometry x="2012.25" y="330" width="100" height="50" as="geometry" />
        </mxCell>
        <mxCell id="Eazdyq1h2dUuFc-zY29B-14" style="rounded=0;orthogonalLoop=1;jettySize=auto;html=1;exitX=0.25;exitY=1;exitDx=0;exitDy=0;entryX=0.5;entryY=0;entryDx=0;entryDy=0;endArrow=none;endFill=0;" parent="1" source="Eazdyq1h2dUuFc-zY29B-15" target="Eazdyq1h2dUuFc-zY29B-13" edge="1">
          <mxGeometry relative="1" as="geometry" />
        </mxCell>
        <mxCell id="Eazdyq1h2dUuFc-zY29B-39" style="edgeStyle=orthogonalEdgeStyle;rounded=0;orthogonalLoop=1;jettySize=auto;html=1;exitX=1;exitY=0.5;exitDx=0;exitDy=0;entryX=0;entryY=0.5;entryDx=0;entryDy=0;endArrow=none;endFill=0;" parent="1" source="Eazdyq1h2dUuFc-zY29B-15" target="Eazdyq1h2dUuFc-zY29B-38" edge="1">
          <mxGeometry relative="1" as="geometry" />
        </mxCell>
        <mxCell id="Eazdyq1h2dUuFc-zY29B-15" value="Employee" style="rounded=0;whiteSpace=wrap;html=1;" parent="1" vertex="1">
          <mxGeometry x="2112.25" y="245" width="230" height="50" as="geometry" />
        </mxCell>
        <mxCell id="Eazdyq1h2dUuFc-zY29B-16" style="rounded=0;orthogonalLoop=1;jettySize=auto;html=1;exitX=0.5;exitY=0;exitDx=0;exitDy=0;endArrow=none;endFill=0;" parent="1" source="Eazdyq1h2dUuFc-zY29B-17" edge="1">
          <mxGeometry relative="1" as="geometry">
            <mxPoint x="2227.25" y="245" as="targetPoint" />
          </mxGeometry>
        </mxCell>
        <mxCell id="Eazdyq1h2dUuFc-zY29B-17" value="name" style="ellipse;whiteSpace=wrap;html=1;" parent="1" vertex="1">
          <mxGeometry x="2177.25" y="115" width="100" height="50" as="geometry" />
        </mxCell>
        <mxCell id="Eazdyq1h2dUuFc-zY29B-18" style="rounded=0;orthogonalLoop=1;jettySize=auto;html=1;exitX=0.5;exitY=0;exitDx=0;exitDy=0;entryX=0.75;entryY=1;entryDx=0;entryDy=0;endArrow=none;endFill=0;" parent="1" source="Eazdyq1h2dUuFc-zY29B-19" target="Eazdyq1h2dUuFc-zY29B-15" edge="1">
          <mxGeometry relative="1" as="geometry" />
        </mxCell>
        <mxCell id="Eazdyq1h2dUuFc-zY29B-19" value="job title" style="ellipse;whiteSpace=wrap;html=1;" parent="1" vertex="1">
          <mxGeometry x="2317.25" y="365" width="100" height="50" as="geometry" />
        </mxCell>
        <mxCell id="Eazdyq1h2dUuFc-zY29B-20" value="Foreign Key is branch_id" style="text;html=1;strokeColor=none;fillColor=none;align=center;verticalAlign=middle;whiteSpace=wrap;rounded=0;" parent="1" vertex="1">
          <mxGeometry x="2262.25" y="200" width="60" height="30" as="geometry" />
        </mxCell>
        <mxCell id="Eazdyq1h2dUuFc-zY29B-21" style="edgeStyle=orthogonalEdgeStyle;rounded=0;orthogonalLoop=1;jettySize=auto;html=1;exitX=1;exitY=0.5;exitDx=0;exitDy=0;entryX=0;entryY=0.5;entryDx=0;entryDy=0;endArrow=none;endFill=0;" parent="1" source="Eazdyq1h2dUuFc-zY29B-10" target="Eazdyq1h2dUuFc-zY29B-15" edge="1">
          <mxGeometry relative="1" as="geometry">
            <mxPoint x="2032.75" y="270" as="sourcePoint" />
          </mxGeometry>
        </mxCell>
        <mxCell id="Eazdyq1h2dUuFc-zY29B-22" value="(1,1)" style="text;html=1;strokeColor=none;fillColor=none;align=center;verticalAlign=middle;whiteSpace=wrap;rounded=0;" parent="1" vertex="1">
          <mxGeometry x="2062.25" y="245" width="60" height="30" as="geometry" />
        </mxCell>
        <mxCell id="Eazdyq1h2dUuFc-zY29B-23" value="(1,N)" style="text;html=1;strokeColor=none;fillColor=none;align=center;verticalAlign=middle;whiteSpace=wrap;rounded=0;" parent="1" vertex="1">
          <mxGeometry x="2222.25" y="295" width="60" height="30" as="geometry" />
        </mxCell>
        <mxCell id="Eazdyq1h2dUuFc-zY29B-24" style="rounded=0;orthogonalLoop=1;jettySize=auto;html=1;exitX=1;exitY=0;exitDx=0;exitDy=0;entryX=0.5;entryY=1;entryDx=0;entryDy=0;endArrow=none;endFill=0;" parent="1" source="Eazdyq1h2dUuFc-zY29B-17" target="Eazdyq1h2dUuFc-zY29B-25" edge="1">
          <mxGeometry relative="1" as="geometry">
            <mxPoint x="2272.75" y="-45" as="targetPoint" />
          </mxGeometry>
        </mxCell>
        <mxCell id="Eazdyq1h2dUuFc-zY29B-25" value="last name" style="ellipse;whiteSpace=wrap;html=1;" parent="1" vertex="1">
          <mxGeometry x="2252.25" y="10" width="100" height="50" as="geometry" />
        </mxCell>
        <mxCell id="Eazdyq1h2dUuFc-zY29B-26" style="rounded=0;orthogonalLoop=1;jettySize=auto;html=1;entryX=0;entryY=0;entryDx=0;entryDy=0;endArrow=none;endFill=0;exitX=0.676;exitY=0.98;exitDx=0;exitDy=0;exitPerimeter=0;" parent="1" source="Eazdyq1h2dUuFc-zY29B-27" target="Eazdyq1h2dUuFc-zY29B-17" edge="1">
          <mxGeometry relative="1" as="geometry">
            <mxPoint x="2172.75" y="-45" as="targetPoint" />
            <mxPoint x="2169.75" y="65" as="sourcePoint" />
          </mxGeometry>
        </mxCell>
        <mxCell id="Eazdyq1h2dUuFc-zY29B-27" value="first name" style="ellipse;whiteSpace=wrap;html=1;" parent="1" vertex="1">
          <mxGeometry x="2102.25" y="10" width="100" height="50" as="geometry" />
        </mxCell>
        <mxCell id="Eazdyq1h2dUuFc-zY29B-28" value="email address" style="ellipse;whiteSpace=wrap;html=1;" parent="1" vertex="1">
          <mxGeometry x="2342.25" y="70" width="140" height="80" as="geometry" />
        </mxCell>
        <mxCell id="Eazdyq1h2dUuFc-zY29B-113" style="rounded=0;orthogonalLoop=1;jettySize=auto;html=1;exitX=0;exitY=0;exitDx=0;exitDy=0;entryX=1;entryY=1;entryDx=0;entryDy=0;endArrow=none;endFill=0;" parent="1" source="Eazdyq1h2dUuFc-zY29B-30" target="Eazdyq1h2dUuFc-zY29B-15" edge="1">
          <mxGeometry relative="1" as="geometry" />
        </mxCell>
        <mxCell id="Eazdyq1h2dUuFc-zY29B-30" value="phone number" style="ellipse;whiteSpace=wrap;html=1;" parent="1" vertex="1">
          <mxGeometry x="2427.25" y="330" width="100" height="50" as="geometry" />
        </mxCell>
        <mxCell id="Eazdyq1h2dUuFc-zY29B-31" value="email address" style="ellipse;whiteSpace=wrap;html=1;" parent="1" vertex="1">
          <mxGeometry x="2362.25" y="85" width="100" height="50" as="geometry" />
        </mxCell>
        <mxCell id="Eazdyq1h2dUuFc-zY29B-32" style="rounded=0;orthogonalLoop=1;jettySize=auto;html=1;exitX=0;exitY=1;exitDx=0;exitDy=0;entryX=0.956;entryY=-0.04;entryDx=0;entryDy=0;entryPerimeter=0;endArrow=none;endFill=0;" parent="1" source="Eazdyq1h2dUuFc-zY29B-28" target="Eazdyq1h2dUuFc-zY29B-15" edge="1">
          <mxGeometry relative="1" as="geometry" />
        </mxCell>
        <mxCell id="Eazdyq1h2dUuFc-zY29B-33" style="rounded=0;orthogonalLoop=1;jettySize=auto;html=1;exitX=0.25;exitY=0;exitDx=0;exitDy=0;entryX=1;entryY=1;entryDx=0;entryDy=0;endArrow=none;endFill=0;" parent="1" source="Eazdyq1h2dUuFc-zY29B-15" target="Eazdyq1h2dUuFc-zY29B-34" edge="1">
          <mxGeometry relative="1" as="geometry">
            <mxPoint x="2077.25" y="-15" as="targetPoint" />
          </mxGeometry>
        </mxCell>
        <mxCell id="Eazdyq1h2dUuFc-zY29B-34" value="date of birth" style="ellipse;whiteSpace=wrap;html=1;" parent="1" vertex="1">
          <mxGeometry x="1979.75" y="150" width="107" height="50" as="geometry" />
        </mxCell>
        <mxCell id="Eazdyq1h2dUuFc-zY29B-35" style="rounded=0;orthogonalLoop=1;jettySize=auto;html=1;exitX=0.5;exitY=1;exitDx=0;exitDy=0;endArrow=none;endFill=0;" parent="1" source="Eazdyq1h2dUuFc-zY29B-36" target="Eazdyq1h2dUuFc-zY29B-15" edge="1">
          <mxGeometry relative="1" as="geometry" />
        </mxCell>
        <mxCell id="Eazdyq1h2dUuFc-zY29B-36" value="age" style="ellipse;whiteSpace=wrap;html=1;dashed=1;" parent="1" vertex="1">
          <mxGeometry x="2027.25" y="75" width="100" height="50" as="geometry" />
        </mxCell>
        <mxCell id="Eazdyq1h2dUuFc-zY29B-38" value="has" style="rhombus;whiteSpace=wrap;html=1;" parent="1" vertex="1">
          <mxGeometry x="2482.25" y="230" width="135" height="80" as="geometry" />
        </mxCell>
        <mxCell id="Eazdyq1h2dUuFc-zY29B-40" value="(0,N)" style="text;html=1;strokeColor=none;fillColor=none;align=center;verticalAlign=middle;whiteSpace=wrap;rounded=0;" parent="1" vertex="1">
          <mxGeometry x="2327.25" y="245" width="60" height="30" as="geometry" />
        </mxCell>
        <mxCell id="Eazdyq1h2dUuFc-zY29B-41" style="rounded=0;orthogonalLoop=1;jettySize=auto;html=1;exitX=1;exitY=1;exitDx=0;exitDy=0;entryX=0.25;entryY=0;entryDx=0;entryDy=0;endArrow=none;endFill=0;" parent="1" source="Eazdyq1h2dUuFc-zY29B-42" target="Eazdyq1h2dUuFc-zY29B-43" edge="1">
          <mxGeometry relative="1" as="geometry" />
        </mxCell>
        <mxCell id="Eazdyq1h2dUuFc-zY29B-42" value="&lt;u&gt;license_id&amp;nbsp;&lt;/u&gt;" style="ellipse;whiteSpace=wrap;html=1;" parent="1" vertex="1">
          <mxGeometry x="2684.75" y="125" width="100" height="50" as="geometry" />
        </mxCell>
        <mxCell id="Eazdyq1h2dUuFc-zY29B-45" style="rounded=0;orthogonalLoop=1;jettySize=auto;html=1;exitX=0;exitY=0.5;exitDx=0;exitDy=0;entryX=1;entryY=0.5;entryDx=0;entryDy=0;endArrow=none;endFill=0;" parent="1" source="Eazdyq1h2dUuFc-zY29B-43" target="Eazdyq1h2dUuFc-zY29B-38" edge="1">
          <mxGeometry relative="1" as="geometry" />
        </mxCell>
        <mxCell id="Eazdyq1h2dUuFc-zY29B-43" value="License" style="rounded=0;whiteSpace=wrap;html=1;" parent="1" vertex="1">
          <mxGeometry x="2719.25" y="245" width="230" height="50" as="geometry" />
        </mxCell>
        <mxCell id="Eazdyq1h2dUuFc-zY29B-46" style="rounded=0;orthogonalLoop=1;jettySize=auto;html=1;exitX=0.5;exitY=1;exitDx=0;exitDy=0;entryX=0.75;entryY=0;entryDx=0;entryDy=0;endArrow=none;endFill=0;" parent="1" source="Eazdyq1h2dUuFc-zY29B-44" target="Eazdyq1h2dUuFc-zY29B-43" edge="1">
          <mxGeometry relative="1" as="geometry" />
        </mxCell>
        <mxCell id="Eazdyq1h2dUuFc-zY29B-44" value="catagory" style="ellipse;whiteSpace=wrap;html=1;" parent="1" vertex="1">
          <mxGeometry x="2877.25" y="125" width="100" height="50" as="geometry" />
        </mxCell>
        <mxCell id="Eazdyq1h2dUuFc-zY29B-48" style="edgeStyle=orthogonalEdgeStyle;rounded=0;orthogonalLoop=1;jettySize=auto;html=1;exitX=0.5;exitY=0;exitDx=0;exitDy=0;entryX=0.5;entryY=1;entryDx=0;entryDy=0;endArrow=none;endFill=0;" parent="1" source="Eazdyq1h2dUuFc-zY29B-47" target="Eazdyq1h2dUuFc-zY29B-43" edge="1">
          <mxGeometry relative="1" as="geometry" />
        </mxCell>
        <mxCell id="Eazdyq1h2dUuFc-zY29B-62" style="rounded=0;orthogonalLoop=1;jettySize=auto;html=1;exitX=0.5;exitY=1;exitDx=0;exitDy=0;entryX=0.5;entryY=0;entryDx=0;entryDy=0;endArrow=none;endFill=0;" parent="1" source="Eazdyq1h2dUuFc-zY29B-47" target="Eazdyq1h2dUuFc-zY29B-53" edge="1">
          <mxGeometry relative="1" as="geometry" />
        </mxCell>
        <mxCell id="Eazdyq1h2dUuFc-zY29B-47" value="needs" style="rhombus;whiteSpace=wrap;html=1;" parent="1" vertex="1">
          <mxGeometry x="2766.75" y="415" width="135" height="80" as="geometry" />
        </mxCell>
        <mxCell id="Eazdyq1h2dUuFc-zY29B-49" value="(1,M)" style="text;html=1;strokeColor=none;fillColor=none;align=center;verticalAlign=middle;whiteSpace=wrap;rounded=0;" parent="1" vertex="1">
          <mxGeometry x="2669.75" y="245" width="60" height="30" as="geometry" />
        </mxCell>
        <mxCell id="Eazdyq1h2dUuFc-zY29B-50" value="(1,1)" style="text;html=1;strokeColor=none;fillColor=none;align=center;verticalAlign=middle;whiteSpace=wrap;rounded=0;" parent="1" vertex="1">
          <mxGeometry x="2819.75" y="290" width="60" height="30" as="geometry" />
        </mxCell>
        <mxCell id="Eazdyq1h2dUuFc-zY29B-51" value="&lt;u&gt;plate number&lt;/u&gt;" style="ellipse;whiteSpace=wrap;html=1;" parent="1" vertex="1">
          <mxGeometry x="2624.25" y="510" width="100" height="50" as="geometry" />
        </mxCell>
        <mxCell id="Eazdyq1h2dUuFc-zY29B-53" value="Vehicle" style="rounded=0;whiteSpace=wrap;html=1;" parent="1" vertex="1">
          <mxGeometry x="2724.75" y="600" width="230" height="50" as="geometry" />
        </mxCell>
        <mxCell id="Eazdyq1h2dUuFc-zY29B-54" style="rounded=0;orthogonalLoop=1;jettySize=auto;html=1;exitX=0.5;exitY=0;exitDx=0;exitDy=0;entryX=0.75;entryY=1;entryDx=0;entryDy=0;endArrow=none;endFill=0;" parent="1" source="Eazdyq1h2dUuFc-zY29B-55" target="Eazdyq1h2dUuFc-zY29B-53" edge="1">
          <mxGeometry relative="1" as="geometry" />
        </mxCell>
        <mxCell id="Eazdyq1h2dUuFc-zY29B-55" value="type" style="ellipse;whiteSpace=wrap;html=1;" parent="1" vertex="1">
          <mxGeometry x="2927.25" y="720" width="100" height="50" as="geometry" />
        </mxCell>
        <mxCell id="Eazdyq1h2dUuFc-zY29B-56" value="Foreign Key is liscense_id" style="text;html=1;strokeColor=none;fillColor=none;align=center;verticalAlign=middle;whiteSpace=wrap;rounded=0;" parent="1" vertex="1">
          <mxGeometry x="2882.25" y="560" width="60" height="30" as="geometry" />
        </mxCell>
        <mxCell id="Eazdyq1h2dUuFc-zY29B-57" value="(0,N)" style="text;html=1;strokeColor=none;fillColor=none;align=center;verticalAlign=middle;whiteSpace=wrap;rounded=0;" parent="1" vertex="1">
          <mxGeometry x="2832.25" y="570" width="60" height="30" as="geometry" />
        </mxCell>
        <mxCell id="Eazdyq1h2dUuFc-zY29B-58" style="rounded=0;orthogonalLoop=1;jettySize=auto;html=1;exitX=0.5;exitY=0;exitDx=0;exitDy=0;entryX=0.5;entryY=1;entryDx=0;entryDy=0;endArrow=none;endFill=0;" parent="1" source="Eazdyq1h2dUuFc-zY29B-59" target="Eazdyq1h2dUuFc-zY29B-53" edge="1">
          <mxGeometry relative="1" as="geometry" />
        </mxCell>
        <mxCell id="Eazdyq1h2dUuFc-zY29B-59" value="make" style="ellipse;whiteSpace=wrap;html=1;" parent="1" vertex="1">
          <mxGeometry x="2792.25" y="720" width="100" height="50" as="geometry" />
        </mxCell>
        <mxCell id="Eazdyq1h2dUuFc-zY29B-60" style="rounded=0;orthogonalLoop=1;jettySize=auto;html=1;exitX=0.5;exitY=0;exitDx=0;exitDy=0;entryX=0.25;entryY=1;entryDx=0;entryDy=0;endArrow=none;endFill=0;" parent="1" source="Eazdyq1h2dUuFc-zY29B-61" target="Eazdyq1h2dUuFc-zY29B-53" edge="1">
          <mxGeometry relative="1" as="geometry" />
        </mxCell>
        <mxCell id="Eazdyq1h2dUuFc-zY29B-61" value="model" style="ellipse;whiteSpace=wrap;html=1;" parent="1" vertex="1">
          <mxGeometry x="2652.25" y="720" width="100" height="50" as="geometry" />
        </mxCell>
        <mxCell id="Eazdyq1h2dUuFc-zY29B-63" value="&lt;u&gt;student_id&lt;/u&gt;" style="ellipse;whiteSpace=wrap;html=1;" parent="1" vertex="1">
          <mxGeometry x="1564.5" y="715" width="100" height="50" as="geometry" />
        </mxCell>
        <mxCell id="Eazdyq1h2dUuFc-zY29B-64" style="rounded=0;orthogonalLoop=1;jettySize=auto;html=1;exitX=0.5;exitY=1;exitDx=0;exitDy=0;entryX=0.5;entryY=0;entryDx=0;entryDy=0;endArrow=none;endFill=0;" parent="1" source="Eazdyq1h2dUuFc-zY29B-66" target="Eazdyq1h2dUuFc-zY29B-63" edge="1">
          <mxGeometry relative="1" as="geometry" />
        </mxCell>
        <mxCell id="Eazdyq1h2dUuFc-zY29B-65" style="edgeStyle=orthogonalEdgeStyle;rounded=0;orthogonalLoop=1;jettySize=auto;html=1;exitX=1;exitY=0.5;exitDx=0;exitDy=0;entryX=0;entryY=0.5;entryDx=0;entryDy=0;endArrow=none;endFill=0;" parent="1" source="Eazdyq1h2dUuFc-zY29B-66" target="Eazdyq1h2dUuFc-zY29B-71" edge="1">
          <mxGeometry relative="1" as="geometry" />
        </mxCell>
        <mxCell id="Eazdyq1h2dUuFc-zY29B-66" value="Student" style="rounded=0;whiteSpace=wrap;html=1;" parent="1" vertex="1">
          <mxGeometry x="1489.5" y="595" width="230" height="50" as="geometry" />
        </mxCell>
        <mxCell id="Eazdyq1h2dUuFc-zY29B-67" style="rounded=0;orthogonalLoop=1;jettySize=auto;html=1;exitX=0.5;exitY=0;exitDx=0;exitDy=0;entryX=0.75;entryY=1;entryDx=0;entryDy=0;endArrow=none;endFill=0;" parent="1" source="Eazdyq1h2dUuFc-zY29B-68" target="Eazdyq1h2dUuFc-zY29B-66" edge="1">
          <mxGeometry relative="1" as="geometry" />
        </mxCell>
        <mxCell id="Eazdyq1h2dUuFc-zY29B-68" value="name" style="ellipse;whiteSpace=wrap;html=1;" parent="1" vertex="1">
          <mxGeometry x="1694.5" y="715" width="100" height="50" as="geometry" />
        </mxCell>
        <mxCell id="Eazdyq1h2dUuFc-zY29B-69" value="Foreign Key is liscense_id" style="text;html=1;strokeColor=none;fillColor=none;align=center;verticalAlign=middle;whiteSpace=wrap;rounded=0;" parent="1" vertex="1">
          <mxGeometry x="1584.5" y="550" width="60" height="30" as="geometry" />
        </mxCell>
        <mxCell id="Eazdyq1h2dUuFc-zY29B-70" style="edgeStyle=orthogonalEdgeStyle;rounded=0;orthogonalLoop=1;jettySize=auto;html=1;exitX=1;exitY=0.5;exitDx=0;exitDy=0;endArrow=none;endFill=0;" parent="1" source="Eazdyq1h2dUuFc-zY29B-71" edge="1">
          <mxGeometry relative="1" as="geometry">
            <mxPoint x="2032.25" y="620" as="targetPoint" />
          </mxGeometry>
        </mxCell>
        <mxCell id="Eazdyq1h2dUuFc-zY29B-71" value="books" style="rhombus;whiteSpace=wrap;html=1;" parent="1" vertex="1">
          <mxGeometry x="1804.5" y="580" width="135" height="80" as="geometry" />
        </mxCell>
        <mxCell id="Eazdyq1h2dUuFc-zY29B-73" value="(1,N)" style="text;html=1;strokeColor=none;fillColor=none;align=center;verticalAlign=middle;whiteSpace=wrap;rounded=0;" parent="1" vertex="1">
          <mxGeometry x="1704.5" y="595" width="60" height="30" as="geometry" />
        </mxCell>
        <mxCell id="Eazdyq1h2dUuFc-zY29B-76" style="rounded=0;orthogonalLoop=1;jettySize=auto;html=1;exitX=0.5;exitY=0;exitDx=0;exitDy=0;entryX=1;entryY=0.5;entryDx=0;entryDy=0;endArrow=none;endFill=0;" parent="1" source="Eazdyq1h2dUuFc-zY29B-77" target="Eazdyq1h2dUuFc-zY29B-68" edge="1">
          <mxGeometry relative="1" as="geometry">
            <mxPoint x="1742" y="725" as="targetPoint" />
          </mxGeometry>
        </mxCell>
        <mxCell id="Eazdyq1h2dUuFc-zY29B-77" value="last name" style="ellipse;whiteSpace=wrap;html=1;" parent="1" vertex="1">
          <mxGeometry x="1774.5" y="795" width="100" height="50" as="geometry" />
        </mxCell>
        <mxCell id="Eazdyq1h2dUuFc-zY29B-78" style="rounded=0;orthogonalLoop=1;jettySize=auto;html=1;exitX=0.5;exitY=0;exitDx=0;exitDy=0;entryX=0;entryY=0.5;entryDx=0;entryDy=0;endArrow=none;endFill=0;" parent="1" source="Eazdyq1h2dUuFc-zY29B-79" target="Eazdyq1h2dUuFc-zY29B-68" edge="1">
          <mxGeometry relative="1" as="geometry">
            <mxPoint x="1644" y="740" as="targetPoint" />
          </mxGeometry>
        </mxCell>
        <mxCell id="Eazdyq1h2dUuFc-zY29B-79" value="first name" style="ellipse;whiteSpace=wrap;html=1;" parent="1" vertex="1">
          <mxGeometry x="1624.5" y="795" width="100" height="50" as="geometry" />
        </mxCell>
        <mxCell id="Eazdyq1h2dUuFc-zY29B-87" style="rounded=0;orthogonalLoop=1;jettySize=auto;html=1;exitX=0.5;exitY=1;exitDx=0;exitDy=0;entryX=0.25;entryY=0;entryDx=0;entryDy=0;endArrow=none;endFill=0;" parent="1" source="Eazdyq1h2dUuFc-zY29B-80" target="Eazdyq1h2dUuFc-zY29B-66" edge="1">
          <mxGeometry relative="1" as="geometry" />
        </mxCell>
        <mxCell id="Eazdyq1h2dUuFc-zY29B-80" value="email address" style="ellipse;whiteSpace=wrap;html=1;" parent="1" vertex="1">
          <mxGeometry x="1472" y="470" width="140" height="80" as="geometry" />
        </mxCell>
        <mxCell id="Eazdyq1h2dUuFc-zY29B-88" style="rounded=0;orthogonalLoop=1;jettySize=auto;html=1;exitX=0.5;exitY=1;exitDx=0;exitDy=0;entryX=0.75;entryY=0;entryDx=0;entryDy=0;endArrow=none;endFill=0;" parent="1" source="Eazdyq1h2dUuFc-zY29B-81" target="Eazdyq1h2dUuFc-zY29B-66" edge="1">
          <mxGeometry relative="1" as="geometry" />
        </mxCell>
        <mxCell id="Eazdyq1h2dUuFc-zY29B-81" value="phone number" style="ellipse;whiteSpace=wrap;html=1;" parent="1" vertex="1">
          <mxGeometry x="1632" y="485" width="100" height="50" as="geometry" />
        </mxCell>
        <mxCell id="Eazdyq1h2dUuFc-zY29B-82" value="email address" style="ellipse;whiteSpace=wrap;html=1;" parent="1" vertex="1">
          <mxGeometry x="1492" y="485" width="100" height="50" as="geometry" />
        </mxCell>
        <mxCell id="Eazdyq1h2dUuFc-zY29B-83" style="rounded=0;orthogonalLoop=1;jettySize=auto;html=1;exitX=1;exitY=0.5;exitDx=0;exitDy=0;entryX=0;entryY=0.5;entryDx=0;entryDy=0;endArrow=none;endFill=0;" parent="1" source="Eazdyq1h2dUuFc-zY29B-84" target="Eazdyq1h2dUuFc-zY29B-66" edge="1">
          <mxGeometry relative="1" as="geometry" />
        </mxCell>
        <mxCell id="Eazdyq1h2dUuFc-zY29B-84" value="date of birth" style="ellipse;whiteSpace=wrap;html=1;" parent="1" vertex="1">
          <mxGeometry x="1313" y="595" width="107" height="50" as="geometry" />
        </mxCell>
        <mxCell id="Eazdyq1h2dUuFc-zY29B-85" value="age" style="ellipse;whiteSpace=wrap;html=1;dashed=1;" parent="1" vertex="1">
          <mxGeometry x="1389.5" y="700" width="100" height="50" as="geometry" />
        </mxCell>
        <mxCell id="Eazdyq1h2dUuFc-zY29B-86" style="rounded=0;orthogonalLoop=1;jettySize=auto;html=1;exitX=0.25;exitY=1;exitDx=0;exitDy=0;entryX=1;entryY=0.5;entryDx=0;entryDy=0;endArrow=none;endFill=0;" parent="1" source="Eazdyq1h2dUuFc-zY29B-66" target="Eazdyq1h2dUuFc-zY29B-85" edge="1">
          <mxGeometry relative="1" as="geometry">
            <mxPoint x="1532.5" y="725" as="sourcePoint" />
          </mxGeometry>
        </mxCell>
        <mxCell id="Eazdyq1h2dUuFc-zY29B-89" value="&lt;u&gt;lesson_id&lt;/u&gt;" style="ellipse;whiteSpace=wrap;html=1;" parent="1" vertex="1">
          <mxGeometry x="2032.25" y="715" width="100" height="50" as="geometry" />
        </mxCell>
        <mxCell id="Eazdyq1h2dUuFc-zY29B-90" style="rounded=0;orthogonalLoop=1;jettySize=auto;html=1;exitX=0.25;exitY=1;exitDx=0;exitDy=0;entryX=0.5;entryY=0;entryDx=0;entryDy=0;endArrow=none;endFill=0;" parent="1" source="Eazdyq1h2dUuFc-zY29B-91" target="Eazdyq1h2dUuFc-zY29B-89" edge="1">
          <mxGeometry relative="1" as="geometry" />
        </mxCell>
        <mxCell id="Eazdyq1h2dUuFc-zY29B-91" value="Lesson" style="rounded=0;whiteSpace=wrap;html=1;" parent="1" vertex="1">
          <mxGeometry x="2119.75" y="595" width="230" height="50" as="geometry" />
        </mxCell>
        <mxCell id="Eazdyq1h2dUuFc-zY29B-92" value="type" style="ellipse;whiteSpace=wrap;html=1;" parent="1" vertex="1">
          <mxGeometry x="2262.25" y="790" width="100" height="50" as="geometry" />
        </mxCell>
        <mxCell id="Eazdyq1h2dUuFc-zY29B-93" style="rounded=0;orthogonalLoop=1;jettySize=auto;html=1;exitX=0.5;exitY=0;exitDx=0;exitDy=0;entryX=0.75;entryY=1;entryDx=0;entryDy=0;endArrow=none;endFill=0;" parent="1" source="Eazdyq1h2dUuFc-zY29B-94" target="Eazdyq1h2dUuFc-zY29B-91" edge="1">
          <mxGeometry relative="1" as="geometry" />
        </mxCell>
        <mxCell id="Eazdyq1h2dUuFc-zY29B-94" value="topic" style="ellipse;whiteSpace=wrap;html=1;" parent="1" vertex="1">
          <mxGeometry x="2317.25" y="715" width="100" height="50" as="geometry" />
        </mxCell>
        <mxCell id="Eazdyq1h2dUuFc-zY29B-95" style="rounded=0;orthogonalLoop=1;jettySize=auto;html=1;exitX=0.5;exitY=1;exitDx=0;exitDy=0;entryX=0.75;entryY=0;entryDx=0;entryDy=0;endArrow=none;endFill=0;" parent="1" source="Eazdyq1h2dUuFc-zY29B-96" target="Eazdyq1h2dUuFc-zY29B-91" edge="1">
          <mxGeometry relative="1" as="geometry" />
        </mxCell>
        <mxCell id="Eazdyq1h2dUuFc-zY29B-96" value="duration" style="ellipse;whiteSpace=wrap;html=1;" parent="1" vertex="1">
          <mxGeometry x="2359.75" y="510" width="100" height="50" as="geometry" />
        </mxCell>
        <mxCell id="Eazdyq1h2dUuFc-zY29B-97" style="rounded=0;orthogonalLoop=1;jettySize=auto;html=1;exitX=0.5;exitY=1;exitDx=0;exitDy=0;entryX=0.5;entryY=1;entryDx=0;entryDy=0;endArrow=none;endFill=0;" parent="1" source="Eazdyq1h2dUuFc-zY29B-98" target="Eazdyq1h2dUuFc-zY29B-91" edge="1">
          <mxGeometry relative="1" as="geometry">
            <mxPoint x="2018.75" y="595" as="targetPoint" />
          </mxGeometry>
        </mxCell>
        <mxCell id="Eazdyq1h2dUuFc-zY29B-98" value="max participants" style="ellipse;whiteSpace=wrap;html=1;" parent="1" vertex="1">
          <mxGeometry x="2052.25" y="790" width="170" height="50" as="geometry" />
        </mxCell>
        <mxCell id="Eazdyq1h2dUuFc-zY29B-99" style="rounded=0;orthogonalLoop=1;jettySize=auto;html=1;exitX=0.5;exitY=1;exitDx=0;exitDy=0;entryX=0.812;entryY=0.036;entryDx=0;entryDy=0;endArrow=none;endFill=0;entryPerimeter=0;" parent="1" source="Eazdyq1h2dUuFc-zY29B-100" target="Eazdyq1h2dUuFc-zY29B-107" edge="1">
          <mxGeometry relative="1" as="geometry" />
        </mxCell>
        <mxCell id="Eazdyq1h2dUuFc-zY29B-100" value="date" style="ellipse;whiteSpace=wrap;html=1;" parent="1" vertex="1">
          <mxGeometry x="1986.75" y="515" width="100" height="50" as="geometry" />
        </mxCell>
        <mxCell id="Eazdyq1h2dUuFc-zY29B-101" style="edgeStyle=orthogonalEdgeStyle;rounded=0;orthogonalLoop=1;jettySize=auto;html=1;exitX=0;exitY=0.5;exitDx=0;exitDy=0;entryX=1;entryY=0.5;entryDx=0;entryDy=0;endArrow=none;endFill=0;" parent="1" source="Eazdyq1h2dUuFc-zY29B-102" target="Eazdyq1h2dUuFc-zY29B-91" edge="1">
          <mxGeometry relative="1" as="geometry" />
        </mxCell>
        <mxCell id="Eazdyq1h2dUuFc-zY29B-111" style="rounded=0;orthogonalLoop=1;jettySize=auto;html=1;exitX=1;exitY=0.5;exitDx=0;exitDy=0;entryX=0;entryY=0.5;entryDx=0;entryDy=0;endArrow=none;endFill=0;" parent="1" source="Eazdyq1h2dUuFc-zY29B-102" target="Eazdyq1h2dUuFc-zY29B-53" edge="1">
          <mxGeometry relative="1" as="geometry" />
        </mxCell>
        <mxCell id="Eazdyq1h2dUuFc-zY29B-102" value="occupies" style="rhombus;whiteSpace=wrap;html=1;" parent="1" vertex="1">
          <mxGeometry x="2429.75" y="580" width="135" height="80" as="geometry" />
        </mxCell>
        <mxCell id="Eazdyq1h2dUuFc-zY29B-103" value="(0,N)" style="text;html=1;strokeColor=none;fillColor=none;align=center;verticalAlign=middle;whiteSpace=wrap;rounded=0;" parent="1" vertex="1">
          <mxGeometry x="2337.25" y="595" width="60" height="30" as="geometry" />
        </mxCell>
        <mxCell id="Eazdyq1h2dUuFc-zY29B-104" value="(1,1)" style="text;html=1;strokeColor=none;fillColor=none;align=center;verticalAlign=middle;whiteSpace=wrap;rounded=0;" parent="1" vertex="1">
          <mxGeometry x="2229.75" y="565" width="60" height="30" as="geometry" />
        </mxCell>
        <mxCell id="Eazdyq1h2dUuFc-zY29B-105" style="rounded=0;orthogonalLoop=1;jettySize=auto;html=1;exitX=0.5;exitY=0;exitDx=0;exitDy=0;entryX=0.62;entryY=1.04;entryDx=0;entryDy=0;entryPerimeter=0;endArrow=none;endFill=0;" parent="1" source="Eazdyq1h2dUuFc-zY29B-92" target="Eazdyq1h2dUuFc-zY29B-91" edge="1">
          <mxGeometry relative="1" as="geometry" />
        </mxCell>
        <mxCell id="Eazdyq1h2dUuFc-zY29B-106" style="edgeStyle=orthogonalEdgeStyle;rounded=0;orthogonalLoop=1;jettySize=auto;html=1;exitX=1;exitY=0.5;exitDx=0;exitDy=0;entryX=0;entryY=0.5;entryDx=0;entryDy=0;endArrow=none;endFill=0;" parent="1" target="Eazdyq1h2dUuFc-zY29B-91" edge="1">
          <mxGeometry relative="1" as="geometry">
            <mxPoint x="2027.75" y="620" as="sourcePoint" />
          </mxGeometry>
        </mxCell>
        <mxCell id="Eazdyq1h2dUuFc-zY29B-107" value="(0,M)" style="text;html=1;strokeColor=none;fillColor=none;align=center;verticalAlign=middle;whiteSpace=wrap;rounded=0;" parent="1" vertex="1">
          <mxGeometry x="2072.25" y="595" width="60" height="30" as="geometry" />
        </mxCell>
        <mxCell id="Eazdyq1h2dUuFc-zY29B-112" style="rounded=0;orthogonalLoop=1;jettySize=auto;html=1;exitX=1;exitY=0.5;exitDx=0;exitDy=0;entryX=0;entryY=1;entryDx=0;entryDy=0;endArrow=none;endFill=0;" parent="1" source="Eazdyq1h2dUuFc-zY29B-108" target="Eazdyq1h2dUuFc-zY29B-91" edge="1">
          <mxGeometry relative="1" as="geometry" />
        </mxCell>
        <mxCell id="Eazdyq1h2dUuFc-zY29B-108" value="time" style="ellipse;whiteSpace=wrap;html=1;" parent="1" vertex="1">
          <mxGeometry x="1967.25" y="650" width="100" height="50" as="geometry" />
        </mxCell>
        <mxCell id="Eazdyq1h2dUuFc-zY29B-110" style="rounded=0;orthogonalLoop=1;jettySize=auto;html=1;exitX=1;exitY=1;exitDx=0;exitDy=0;entryX=0.25;entryY=0;entryDx=0;entryDy=0;endArrow=none;endFill=0;" parent="1" source="Eazdyq1h2dUuFc-zY29B-51" target="Eazdyq1h2dUuFc-zY29B-53" edge="1">
          <mxGeometry relative="1" as="geometry" />
        </mxCell>
        <mxCell id="Eazdyq1h2dUuFc-zY29B-116" style="rounded=0;orthogonalLoop=1;jettySize=auto;html=1;exitX=0.5;exitY=0;exitDx=0;exitDy=0;entryX=0.5;entryY=1;entryDx=0;entryDy=0;endArrow=none;endFill=0;" parent="1" source="Eazdyq1h2dUuFc-zY29B-114" target="Eazdyq1h2dUuFc-zY29B-15" edge="1">
          <mxGeometry relative="1" as="geometry" />
        </mxCell>
        <mxCell id="Eazdyq1h2dUuFc-zY29B-119" style="edgeStyle=orthogonalEdgeStyle;rounded=0;orthogonalLoop=1;jettySize=auto;html=1;exitX=0.5;exitY=1;exitDx=0;exitDy=0;entryX=0.5;entryY=0;entryDx=0;entryDy=0;endArrow=none;endFill=0;" parent="1" source="Eazdyq1h2dUuFc-zY29B-114" target="Eazdyq1h2dUuFc-zY29B-91" edge="1">
          <mxGeometry relative="1" as="geometry" />
        </mxCell>
        <mxCell id="Eazdyq1h2dUuFc-zY29B-114" value="teach" style="rhombus;whiteSpace=wrap;html=1;" parent="1" vertex="1">
          <mxGeometry x="2167.25" y="405" width="135" height="80" as="geometry" />
        </mxCell>
        <mxCell id="Eazdyq1h2dUuFc-zY29B-120" value="(0,1)" style="text;html=1;strokeColor=none;fillColor=none;align=center;verticalAlign=middle;whiteSpace=wrap;rounded=0;" parent="1" vertex="1">
          <mxGeometry x="2672.25" y="595" width="60" height="30" as="geometry" />
        </mxCell>
      </root>
    </mxGraphModel>
  </diagram>
</mxfile>
